<svg width="364" height="115" viewBox="0 0 364 115" fill="none" xmlns="http://www.w3.org/2000/svg">
<path d="M127.496 38.744V75.536C127.496 77.696 127.112 79.664 126.344 81.44C125.624 83.216 124.568 84.728 123.176 85.976C121.832 87.224 120.2 88.184 118.28 88.856C116.36 89.528 114.224 89.864 111.872 89.864C107.456 89.864 103.928 88.76 101.288 86.552C98.696 84.344 97.016 81.296 96.248 77.408L103.88 75.824C104.312 77.888 105.128 79.616 106.328 81.008C107.528 82.4 109.4 83.096 111.944 83.096C114.296 83.096 116.12 82.4 117.416 81.008C118.76 79.568 119.432 77.384 119.432 74.456V45.512H101.936V38.744H127.496ZM170.596 89C168.34 89 166.636 88.424 165.484 87.272C164.38 86.12 163.708 84.608 163.468 82.736H163.108C162.388 84.992 161.068 86.744 159.148 87.992C157.276 89.24 154.876 89.864 151.948 89.864C148.156 89.864 145.132 88.88 142.876 86.912C140.62 84.896 139.492 82.136 139.492 78.632C139.492 75.032 140.812 72.296 143.452 70.424C146.14 68.504 150.244 67.544 155.764 67.544H162.892V64.664C162.892 59.624 160.228 57.104 154.9 57.104C152.5 57.104 150.556 57.584 149.068 58.544C147.58 59.456 146.332 60.68 145.324 62.216L140.644 58.4C141.7 56.384 143.476 54.656 145.972 53.216C148.468 51.728 151.684 50.984 155.62 50.984C160.324 50.984 164.02 52.112 166.708 54.368C169.396 56.624 170.74 59.888 170.74 64.16V82.808H175.42V89H170.596ZM154.18 84.104C156.724 84.104 158.812 83.528 160.444 82.376C162.076 81.224 162.892 79.736 162.892 77.912V72.512H155.908C150.244 72.512 147.412 74.216 147.412 77.624V79.064C147.412 80.744 148.012 82.016 149.212 82.88C150.412 83.696 152.068 84.104 154.18 84.104ZM183.816 82.664H193.68V58.184H183.816V51.848H201.528V61.712H201.96C202.296 60.416 202.776 59.168 203.4 57.968C204.024 56.768 204.816 55.736 205.776 54.872C206.736 53.96 207.912 53.24 209.304 52.712C210.696 52.136 212.328 51.848 214.2 51.848H218.664V59.336H211.32C208.44 59.336 206.088 60.2 204.264 61.928C202.44 63.608 201.528 65.888 201.528 68.768V82.664H214.992V89H183.816V82.664ZM227.204 35.72H235.052V58.184H235.484C236.588 55.928 238.052 54.176 239.876 52.928C241.7 51.632 243.98 50.984 246.716 50.984C251.084 50.984 254.564 52.616 257.156 55.88C259.748 59.144 261.044 63.992 261.044 70.424C261.044 76.856 259.748 81.704 257.156 84.968C254.564 88.232 251.084 89.864 246.716 89.864C243.98 89.864 241.7 89.24 239.876 87.992C238.052 86.696 236.588 84.92 235.484 82.664H235.052V89H227.204V35.72ZM243.476 83.456C246.452 83.456 248.732 82.544 250.316 80.72C251.948 78.896 252.764 76.472 252.764 73.448V67.4C252.764 64.376 251.948 61.952 250.316 60.128C248.732 58.304 246.452 57.392 243.476 57.392C242.324 57.392 241.244 57.536 240.236 57.824C239.228 58.112 238.34 58.544 237.572 59.12C236.804 59.696 236.18 60.416 235.7 61.28C235.268 62.096 235.052 63.08 235.052 64.232V76.616C235.052 77.768 235.268 78.776 235.7 79.64C236.18 80.456 236.804 81.152 237.572 81.728C238.34 82.304 239.228 82.736 240.236 83.024C241.244 83.312 242.324 83.456 243.476 83.456ZM300.112 89C297.856 89 296.152 88.424 295 87.272C293.896 86.12 293.224 84.608 292.984 82.736H292.624C291.904 84.992 290.584 86.744 288.664 87.992C286.792 89.24 284.392 89.864 281.464 89.864C277.672 89.864 274.648 88.88 272.392 86.912C270.136 84.896 269.008 82.136 269.008 78.632C269.008 75.032 270.328 72.296 272.968 70.424C275.656 68.504 279.76 67.544 285.28 67.544H292.408V64.664C292.408 59.624 289.744 57.104 284.416 57.104C282.016 57.104 280.072 57.584 278.584 58.544C277.096 59.456 275.848 60.68 274.84 62.216L270.16 58.4C271.216 56.384 272.992 54.656 275.488 53.216C277.984 51.728 281.2 50.984 285.136 50.984C289.84 50.984 293.536 52.112 296.224 54.368C298.912 56.624 300.256 59.888 300.256 64.16V82.808H304.936V89H300.112ZM283.695 84.104C286.24 84.104 288.328 83.528 289.96 82.376C291.592 81.224 292.408 79.736 292.408 77.912V72.512H285.424C279.76 72.512 276.928 74.216 276.928 77.624V79.064C276.928 80.744 277.528 82.016 278.728 82.88C279.928 83.696 281.584 84.104 283.695 84.104ZM329.531 89.864C325.499 89.864 322.019 89.216 319.091 87.92C316.211 86.624 313.883 84.896 312.107 82.736L316.931 78.416C318.563 80.192 320.387 81.56 322.403 82.52C324.467 83.432 326.891 83.888 329.675 83.888C332.219 83.888 334.259 83.456 335.795 82.592C337.379 81.728 338.171 80.384 338.171 78.56C338.171 77.792 338.027 77.144 337.739 76.616C337.451 76.088 337.043 75.656 336.515 75.32C335.987 74.984 335.363 74.72 334.643 74.528C333.971 74.336 333.251 74.192 332.483 74.096L326.579 73.16C325.139 72.968 323.675 72.656 322.187 72.224C320.699 71.792 319.355 71.192 318.155 70.424C317.003 69.608 316.043 68.576 315.275 67.328C314.555 66.08 314.195 64.496 314.195 62.576C314.195 58.784 315.635 55.904 318.515 53.936C321.443 51.968 325.283 50.984 330.035 50.984C333.491 50.984 336.467 51.512 338.963 52.568C341.507 53.576 343.619 54.992 345.299 56.816L340.907 61.424C339.947 60.32 338.579 59.312 336.803 58.4C335.027 57.44 332.675 56.96 329.747 56.96C324.515 56.96 321.899 58.616 321.899 61.928C321.899 63.512 322.451 64.616 323.555 65.24C324.707 65.816 326.051 66.2 327.587 66.392L333.491 67.328C334.979 67.568 336.443 67.88 337.883 68.264C339.371 68.648 340.691 69.248 341.843 70.064C343.043 70.832 344.003 71.84 344.723 73.088C345.491 74.336 345.875 75.92 345.875 77.84C345.875 81.584 344.411 84.536 341.483 86.696C338.603 88.808 334.619 89.864 329.531 89.864Z" fill="#0136AC"/>
<path d="M28.8592 64.5932C20.54 65.3654 17.4865 66.7269 14.2097 70.4124C11.8969 73.9039 11.0644 76.9249 12.4753 83.2147C13.8242 89.2279 15.2774 91.2918 16.523 93.3013C19.2498 97.2986 20.6814 98.9548 23.0766 100.672C26.0929 102.092 27.7025 103 30.594 103C33.6299 102.583 35.5397 102.418 37.9186 100.672C41.4608 98.0728 43.0222 96.4863 44.665 93.3013C46.9745 89.5063 47.7178 87.2694 48.7128 83.2147C50.1155 77.6738 48.9705 72.5461 46.3997 69.6365C43.2083 66.0245 39.6399 64.7981 28.8592 64.5932Z" fill="url(#paint0_linear_187_178)"/>
<path d="M5.21385 29.1329C6.04312 27.1511 7.90839 23.6617 12.8281 20.1584C16.8823 17.2714 17.2684 17.1402 21.7087 15.7317C22.8277 15.3768 21.5156 14.3845 25.3768 12.2674C26.7242 11.5286 27.8865 11.4975 29.238 11.4975C29.6327 11.4975 29.5039 11.6056 29.431 11.305C29.3872 11.1246 29.431 10.6315 29.431 10.3427C29.431 10.001 29.4115 8.98624 29.431 8.61055C29.4496 8.25281 29.5144 8.52835 29.238 8.4181C28.2726 8.03318 26.9212 6.87838 26.5352 5.14622C26.0309 2.88381 27.2204 1.1045 29.238 0.334619C30.3645 -0.095284 31.2132 -0.127505 32.3269 0.334619C34.2571 1.13556 35.1145 3.11549 34.6436 5.14622C34.3173 6.55292 32.906 8.03314 32.1338 8.22562C31.6478 8.34675 31.9244 8.14137 31.9407 8.61055C31.9483 8.82868 31.9492 9.40819 31.9407 9.76534C31.9355 9.98432 31.9407 10.1503 31.9407 10.3427V11.4975C31.9819 11.6383 31.8847 11.4975 32.1338 11.4975C32.906 11.4975 34.5045 11.7406 36.188 12.4598C37.4328 12.9917 39.3411 14.4037 39.1741 15.6174C39.6468 15.6344 40.632 15.8813 42.5589 16.694C44.5865 17.3581 47.0596 18.9095 48.7367 20.1584C50.3879 21.3879 51.6326 22.6604 52.984 24.0077C54.2931 25.6857 55.6022 27.7249 55.6829 28.9006C56.138 28.8907 57.0095 29.0463 58.5826 29.5891C60.3202 30.5514 60.4791 31.0683 60.7063 31.8987C61.2855 34.0158 61.0303 36.5009 61.0924 38.4425C61.1443 40.0662 60.9653 42.8807 60.8993 43.0616C59.3549 47.2958 56.6209 46.2231 56.266 46.7184C52.4048 52.1074 52.0187 53.0697 48.7367 55.7642C45.6357 58.3102 43.3728 59.3064 39.47 60.3833C36.8897 61.0953 33.6783 61.5381 32.3269 61.5381H29.431C27.6935 61.5381 26.7282 61.3457 26.7282 61.3457C24.0254 61.1532 18.3913 59.8031 14.1795 56.7265C12.4673 55.4759 10.897 54.2245 9.15947 52.4923C7.87672 51.2135 7.2289 49.9903 6.26361 48.643C5.51935 47.4064 5.27535 46.8761 5.20742 46.6738C5.19392 46.6989 5.16401 46.7184 5.10581 46.7184C3.56081 46.7184 3.49241 46.6641 2.78794 46.3335C1.43684 45.3712 0.20554 45.0177 0.0857958 42.8691C-0.107276 39.4048 0.0858588 37.4801 0.0857958 34.5932C0.0857958 31.7062 0.472253 33.1702 0.472253 32.4761C0.472253 31.3213 1.89048 30.1631 2.40254 29.974C3.94313 29.4052 4.78505 29.1824 5.21385 29.1329Z" fill="url(#paint1_linear_187_178)"/>
<path d="M19.8373 28.9858C21.1786 28.9559 32.2924 28.5946 41.6815 28.9858C43.0064 29.041 43.8078 29.2575 44.939 29.9639C45.7076 30.444 46.0539 30.8514 46.6635 31.5289C47.3521 32.294 47.7089 32.7686 48.1964 33.6806C48.6957 34.6146 48.94 35.1824 49.1545 36.2237C49.4317 37.5693 49.3037 38.3781 49.1545 39.7448C49.0618 40.5936 48.5687 42.0081 47.8132 43.2659C47.2022 44.2831 46.472 45.1133 45.8971 45.6133C45.1306 46.2798 44.3642 47.1782 42.448 47.3738C40.5319 47.5694 37.8492 47.5767 33.2505 47.5694C31.3661 47.5665 29.1673 47.5582 26.7355 47.5694C25.4549 47.5753 24.2445 47.5694 22.7116 47.5694C22.7116 47.5694 19.8118 47.6196 18.1128 46.9826C16.4372 46.3544 15.4907 45.7791 14.2805 44.4396C12.9192 42.9328 12.3511 41.7595 11.9811 39.7448C11.7329 38.3932 11.7039 37.5693 11.9811 36.2237C12.1956 35.1824 12.4399 34.6146 12.9392 33.6806C13.4267 32.7686 13.7662 32.2774 14.4721 31.5289C15.1368 30.8241 15.5524 30.4424 16.3883 29.9639C17.6076 29.266 18.4961 29.0157 19.8373 28.9858Z" fill="white"/>
<circle cx="21.3016" cy="37.9453" r="4.24317" fill="black"/>
<circle cx="39.8173" cy="37.9453" r="4.24317" fill="black"/>
<defs>
<linearGradient id="paint0_linear_187_178" x1="23.5678" y1="92.9618" x2="49.3178" y2="73.6308" gradientUnits="userSpaceOnUse">
<stop stop-color="#001D6C"/>
<stop offset="1" stop-color="#0043CE"/>
</linearGradient>
<linearGradient id="paint1_linear_187_178" x1="13.5297" y1="57.1737" x2="53.6802" y2="-8.06505e-07" gradientUnits="userSpaceOnUse">
<stop stop-color="#001D6C"/>
<stop offset="1" stop-color="#0043CE"/>
</linearGradient>
</defs>
</svg>
