<svg width="71" height="71" viewBox="0 0 71 71" fill="none" xmlns="http://www.w3.org/2000/svg">
<path d="M42.6444 7.87939C42.4577 7.78753 42.249 7.75001 42.0421 7.7711C41.8351 7.79218 41.6383 7.87103 41.474 7.99864L21.8075 23.2969H8.875C7.99233 23.2969 7.1458 23.6476 6.52166 24.2717C5.89752 24.8959 5.54688 25.7424 5.54688 26.625V44.3751C5.54688 45.2577 5.89752 46.1042 6.52166 46.7284C7.1458 47.3525 7.99233 47.7032 8.875 47.7032H21.8075L41.474 63.0015C41.6698 63.1516 41.9095 63.2334 42.1562 63.2344C42.3256 63.2353 42.4928 63.1963 42.6444 63.1207C42.8307 63.0294 42.9876 62.8878 43.0974 62.7118C43.2073 62.5358 43.2655 62.3325 43.2656 62.1251V8.87505C43.2655 8.6676 43.2073 8.46434 43.0974 8.28834C42.9876 8.11234 42.8307 7.97066 42.6444 7.87939ZM7.76562 44.3751V26.625C7.76562 26.3308 7.88251 26.0487 8.09055 25.8406C8.2986 25.6326 8.58078 25.5157 8.875 25.5157H21.0781V45.4844H8.875C8.58078 45.4844 8.2986 45.3675 8.09055 45.1595C7.88251 44.9515 7.76562 44.6693 7.76562 44.3751ZM41.0469 59.8564L23.2969 46.0391V24.961L41.0469 11.1548V59.8564ZM56.5781 35.5C56.5787 37.9327 55.6911 40.2819 54.082 42.1064C53.9855 42.2156 53.8684 42.3048 53.7374 42.3688C53.6065 42.4328 53.4641 42.4704 53.3186 42.4794C53.0248 42.4977 52.7357 42.3984 52.515 42.2034C52.2944 42.0085 52.1602 41.7339 52.142 41.4401C52.133 41.2945 52.1527 41.1487 52.2 41.0108C52.2474 40.8729 52.3215 40.7457 52.418 40.6365C53.666 39.2186 54.3544 37.3945 54.3544 35.5056C54.3544 33.6167 53.666 31.7926 52.418 30.3747C52.2387 30.1521 52.1522 29.8689 52.1766 29.5841C52.201 29.2993 52.3345 29.0349 52.5491 28.846C52.7637 28.6572 53.0429 28.5585 53.3285 28.5705C53.6141 28.5824 53.884 28.7042 54.082 28.9104C55.6873 30.7306 56.5746 33.0731 56.5781 35.5Z" fill="white"/>
</svg>
