<svg width="73" height="101" viewBox="0 0 73 101" fill="none" xmlns="http://www.w3.org/2000/svg">
<path d="M36.5 0.1875C42.2187 0.1875 47.7032 2.45926 51.747 6.50301C55.7907 10.5468 58.0625 16.0313 58.0625 21.75V50.5C58.0625 56.2187 55.7907 61.7032 51.747 65.747C47.7032 69.7907 42.2187 72.0625 36.5 72.0625C30.7813 72.0625 25.2968 69.7907 21.253 65.747C17.2093 61.7032 14.9375 56.2187 14.9375 50.5V21.75C14.9375 16.0313 17.2093 10.5468 21.253 6.50301C25.2968 2.45926 30.7813 0.1875 36.5 0.1875ZM54.4688 50.5V21.75C54.4688 16.9844 52.5756 12.414 49.2058 9.04418C45.836 5.67438 41.2656 3.78125 36.5 3.78125C31.7344 3.78125 27.164 5.67438 23.7942 9.04418C20.4244 12.414 18.5312 16.9844 18.5312 21.75V50.5C18.5312 55.2656 20.4244 59.836 23.7942 63.2058C27.164 66.5756 31.7344 68.4688 36.5 68.4688C41.2656 68.4688 45.836 66.5756 49.2058 63.2058C52.5756 59.836 54.4688 55.2656 54.4688 50.5ZM2.35938 46.9062C2.83594 46.9062 3.29298 47.0956 3.62996 47.4325C3.96694 47.7695 4.15625 48.2266 4.15625 48.7031V50.5C4.15625 59.0781 7.56388 67.3049 13.6295 73.3705C19.6951 79.4361 27.9219 82.8438 36.5 82.8438C45.0781 82.8438 53.3049 79.4361 59.3705 73.3705C65.4361 67.3049 68.8438 59.0781 68.8438 50.5V48.7031C68.8438 48.2266 69.0331 47.7695 69.37 47.4325C69.707 47.0956 70.1641 46.9062 70.6406 46.9062C71.1172 46.9062 71.5742 47.0956 71.9112 47.4325C72.2482 47.7695 72.4375 48.2266 72.4375 48.7031V50.5C72.4375 69.7445 57.3078 85.4564 38.2969 86.3944V99.0156C38.2969 99.4922 38.1076 99.9492 37.7706 100.286C37.4336 100.623 36.9766 100.812 36.5 100.812C36.0234 100.812 35.5664 100.623 35.2294 100.286C34.8924 99.9492 34.7031 99.4922 34.7031 99.0156V86.3944C15.6922 85.46 0.5625 69.7445 0.5625 50.5V48.7031C0.5625 48.2266 0.751813 47.7695 1.08879 47.4325C1.42577 47.0956 1.88281 46.9062 2.35938 46.9062Z" fill="white"/>
</svg>
